<svg xmlns="http://www.w3.org/2000/svg" viewBox="0 0 159.41 168.78"><defs><style>.cls-1{fill:#cb2c30;}</style></defs><title>H_Logo_RED</title><g id="Layer_2" data-name="Layer 2"><g id="Layer_1-2" data-name="Layer 1"><path class="cls-1" d="M103.15,32.82a23.22,23.22,0,0,1,4.11-13.22A18.68,18.68,0,0,0,93.77,37.51v15l9.38.47Z"/><path class="cls-1" d="M93.77,136a18.7,18.7,0,0,0,13.49,17.92,23.27,23.27,0,0,1-4.11-13.23V112.52H93.77Z"/><path class="cls-1" d="M117.21,112.52h-9.38v28.13a18.69,18.69,0,0,0,13.49,17.91,23.29,23.29,0,0,1-4.11-13.22Z"/><path class="cls-1" d="M117.21,28.13a23.32,23.32,0,0,1,4.11-13.22,18.69,18.69,0,0,0-13.49,17.91V53.21l9.38.47Z"/><path class="cls-1" d="M11.5,22.12A23.35,23.35,0,0,0,0,42.2v89.08a23.35,23.35,0,0,0,11.5,20.07,28,28,0,0,1-2.12-10.7V32.82A28,28,0,0,1,11.5,22.12Z"/><path class="cls-1" d="M23.44,23.44a27.82,27.82,0,0,1,2.13-10.69,23.33,23.33,0,0,0-11.5,20.07V140.65a23.38,23.38,0,0,0,15.31,21.91,27.92,27.92,0,0,1-5.94-17.22Z"/><path class="cls-1" d="M140.65,9.38A18.75,18.75,0,0,0,121.9,28.13V58.61L75,56.26V23.44a23.44,23.44,0,0,0-46.88,0v121.9a23.44,23.44,0,0,0,46.88,0V107.83H121.9v37.51a18.76,18.76,0,0,0,37.51,0V28.13A18.75,18.75,0,0,0,140.65,9.38Z"/><path class="cls-1" d="M159.41,145.34a18.76,18.76,0,0,1-37.51,0V107.83H75v37.51a23.44,23.44,0,0,1-46.88,0V23.44a23.44,23.44,0,0,1,46.88,0V56.26l46.89,2.35V28.13a18.76,18.76,0,0,1,37.51,0Z"/></g></g></svg>