<?xml version="1.0" encoding="utf-8"?>
<!-- Generator: Adobe Illustrator 21.1.0, SVG Export Plug-In . SVG Version: 6.00 Build 0)  -->
<svg version="1.1" id="Layer_1" xmlns="http://www.w3.org/2000/svg" xmlns:xlink="http://www.w3.org/1999/xlink" x="0px" y="0px"
	 viewBox="0 0 201.9 243.8" style="enable-background:new 0 0 201.9 243.8;" xml:space="preserve">
<style type="text/css">
	.st0{fill:#D52D28;}
	.st1{fill:#FDFBEC;}
	.st2{fill:#F6E7A4;}
	.st3{fill:#E1C56B;}
	.st4{fill:#EFB0AF;}
	.st5{fill:#FFFFFF;}
	.st6{fill:#593C0E;}
</style>
<title>Mittens_Branding</title>
<g id="Layer_3_copy">
	<path class="st0" d="M165.2,179.5c0,0-3.5,7.2-4.5,7c-1.7-0.5-3.3-1.1-4.9-1.7c0,0-3.5,8-4.7,8s-4.9-1.4-4.9-1.4s-4.5,6.3-5.5,6.3
		s-5.9-2.9-5.9-2.9s-5.3,7.2-7.2,7.2c-1.9,0.1-1.7-4.7-1.7-4.7s-11.8,7.5-12.6,7.2s-1.4-5.2-1.4-5.2s-8.5,7.3-10.9,7.3
		s-10.9-7.2-10.9-7.2s-0.6,4.9-1.4,5.2s-12.6-7.2-12.6-7.2s0.1,4.7-1.7,4.7s-7.2-7.2-7.2-7.2s-4.9,2.9-5.9,2.9s-5.5-6.3-5.5-6.3
		s-3.6,1.4-4.9,1.4s-4.7-8-4.7-8c-1.6,0.7-3.2,1.2-4.9,1.7c-1,0.1-4.5-7-4.5-7s-2.4,0.1-4.1,0.1c-12.6,18.8-16.8,42.1-11.7,64.1
		h159.8c5.2-22.1,1-45.4-11.6-64.2C167.6,179.6,165.2,179.5,165.2,179.5z"/>
	<path class="st1" d="M101,3.3c0,0,14.6-4.3,16.3-3s0.9,4.8,0.9,4.8s12.4-2.8,13.8-1.1s0.9,5.5,0.9,5.5s13.4,0.3,13.9,1.6
		s-1.1,4.9-1.1,4.9s11.1,0.7,12.7,2.9s-0.6,6.4-0.6,6.4s12.5,1,12.6,3.4s-4.4,5.6-4.4,5.6s13.7,2.5,14,5s-4.7,6.5-4.7,6.5
		s13.8,4.2,13.8,7.2S184,58,184,58s11.2,4.5,11.2,7.3s-3.5,5.9-3.5,5.9s8.9,8.1,8.2,10.9c-0.8,2.8-5.2,3.5-5.2,3.5s6.5,7.9,5.9,10.3
		s-4.2,3.5-4.2,3.5s5.6,7.8,5.4,9.5s-4.6,4.3-4.6,4.3s3.5,8.2,3,10.5s-3.8,3.7-3.8,3.7s3,8.5,2.3,10.2s-3.9,2-3.9,2s1.7,8.2,1,8.4
		c-1.2,0.5-2.3,1-3.5,1.6c0,0,0.2,8-0.9,8.7s-4.3,0-4.3,0s-0.6,7.9-1.9,8c-1.6-0.1-3.2-0.4-4.7-0.9c0,0-0.9,7.3-2.5,7.2
		c-1.5-0.3-3-0.9-4.4-1.6c0,0-1.9,8.3-3.1,8.4s-5.4,0-5.4,0s-3.5,7.2-4.5,7c-1.7-0.5-3.3-1.1-4.9-1.7c0,0-3.5,8-4.7,8
		s-4.9-1.4-4.9-1.4s-4.5,6.3-5.5,6.3s-5.9-2.9-5.9-2.9s-5.3,7.2-7.2,7.2c-1.9,0.1-1.7-4.7-1.7-4.7s-11.8,7.5-12.6,7.2
		s-1.4-5.2-1.4-5.2s-8.5,7.3-10.9,7.3s-10.9-7.3-10.9-7.3s-0.6,4.9-1.4,5.2s-12.6-7.2-12.6-7.2s0.1,4.7-1.7,4.7s-7.2-7.2-7.2-7.2
		s-4.9,2.9-5.9,2.9s-5.5-6.3-5.5-6.3s-3.6,1.4-4.9,1.4s-4.7-8-4.7-8c-1.6,0.7-3.2,1.2-4.9,1.7c-1,0.1-4.5-7-4.5-7s-4.2,0.1-5.4,0
		c-1.2-0.1-3.1-8.4-3.1-8.4c-1.4,0.8-2.9,1.3-4.4,1.6c-1.6,0.1-2.5-7.2-2.5-7.2c-1.5,0.5-3.1,0.7-4.7,0.9c-1.3-0.1-1.9-8-1.9-8
		s-3.2,0.8-4.3,0s-0.9-8.7-0.9-8.7c-1.1-0.6-2.3-1.1-3.5-1.6c-0.8-0.2,1-8.4,1-8.4s-3.1-0.3-3.9-2s2.2-10.4,2.2-10.4
		s-3.2-1.4-3.8-3.7s3-10.5,3-10.5s-4.4-2.6-4.6-4.3s5.4-9.5,5.4-9.5s-3.7-1-4.2-3.5s5.9-10.3,5.9-10.3S2.7,84.9,2,82.1
		s8.2-10.9,8.2-10.9s-3.5-3.1-3.5-5.9s11.2-7.3,11.2-7.3s-5.1-2-5.1-5.1s13.8-7.2,13.8-7.2s-5.1-4-4.7-6.5s14-5,14-5
		s-4.4-3.1-4.3-5.6s12.6-3.4,12.6-3.4s-2.3-4.2-0.6-6.4s12.7-2.9,12.7-2.9s-1.6-3.6-1.1-4.9s13.9-1.6,13.9-1.6s-0.6-3.7,0.9-5.5
		S83.7,5,83.7,5s-0.8-3.5,0.9-4.8S101,3.3,101,3.3z"/>
	<path class="st2" d="M101,20.5c0,0,12.6-3.7,14.1-2.6s0.8,4.1,0.8,4.1s10.7-2.5,11.9-1c1.2,1.5,0.7,4.7,0.7,4.7s11.5,0.2,12,1.4
		s-0.9,4.2-0.9,4.2s9.6,0.6,11,2.5s-0.5,5.5-0.5,5.5s10.8,0.8,10.9,3s-3.7,4.8-3.7,4.8s11.8,2.1,12.1,4.3s-4.1,5.6-4.1,5.6
		s11.9,3.6,11.9,6.2s-4.4,4.4-4.4,4.4s9.7,3.9,9.7,6.3s-3,5.1-3,5.1s7.7,7,7.1,9.4s-4.4,3.1-4.4,3.1s5.6,6.8,5.1,8.9s-3.6,3-3.6,3
		s4.8,6.7,4.6,8.2s-4,3.7-4,3.7s3.1,7.1,2.6,9s-3.2,3.2-3.2,3.2s2.6,7.3,2,8.8s-3.4,1.8-3.4,1.8s1.5,7.1,0.8,7.2c-1,0.4-2,0.9-3,1.4
		c0,0,0.2,6.9-0.7,7.5s-3.7,0-3.7,0s-0.6,6.8-1.7,6.9c-1.4-0.1-2.8-0.3-4.1-0.7c0,0-0.7,6.3-2.1,6.2c-1.3-0.3-2.6-0.7-3.8-1.4
		c0,0-1.7,7.2-2.7,7.3s-4.7,0-4.7,0s-3,6.2-3.8,6.1c-1.4-0.4-2.8-0.9-4.2-1.5c0,0-3,6.9-4.1,6.9c-1.4-0.3-2.9-0.7-4.2-1.2
		c0,0-3.8,5.5-4.7,5.5s-5.1-2.5-5.1-2.5s-4.6,6.2-6.2,6.3s-1.5-4-1.5-4s-10.2,6.5-10.9,6.2s-1.2-4.5-1.2-4.5s-7.3,6.3-9.4,6.3
		s-9.4-6.3-9.4-6.3s-0.5,4.2-1.2,4.5S79.5,188,79.5,188s0.1,4.1-1.5,4s-6.2-6.3-6.2-6.3s-4.2,2.5-5.1,2.5s-4.7-5.5-4.7-5.5
		c-1.4,0.6-2.8,1-4.2,1.2c-1.1,0-4.1-6.9-4.1-6.9c-1.4,0.6-2.8,1.1-4.2,1.5c-0.9,0.1-3.8-6.1-3.8-6.1s-3.7,0.1-4.7,0
		s-2.7-7.3-2.7-7.3c-1.2,0.7-2.5,1.1-3.8,1.4c-1.4,0.1-2.1-6.2-2.1-6.2c-1.3,0.4-2.7,0.6-4.1,0.7c-1.1-0.1-1.7-6.9-1.7-6.9
		s-2.8,0.6-3.7,0s-0.7-7.5-0.7-7.5c-1-0.5-2-1-3-1.4c-0.6-0.2,0.8-7.2,0.8-7.2s-2.7-0.3-3.4-1.8c-0.6-1.5,2-8.8,2-8.8
		s-2.9-1.2-3.4-3.2s2.6-9,2.6-9s-3.8-2.2-4-3.7s4.6-8.2,4.6-8.2s-3.2-0.8-3.6-3s5.1-8.9,5.1-8.9s-3.8-0.6-4.5-3.1
		C14.9,86,22.6,79,22.6,79s-3-2.7-3-5.1s9.7-6.3,9.7-6.3s-4.4-1.8-4.4-4.4S36.8,57,36.8,57s-4.4-3.4-4.1-5.6s12.1-4.3,12.1-4.3
		s-3.8-2.7-3.7-4.8s10.9-3,10.9-3s-2-3.6-0.6-5.5s11-2.5,11-2.5S61,28.2,61.5,27s12-1.4,12-1.4S73,22.5,74.2,21s11.9,1,11.9,1
		s-0.7-3,0.8-4.1S101,20.5,101,20.5z"/>
	<path class="st3" d="M167.9,93.9c0-1.9-14.1-10.5-15.1-12.1s3.5-5.1,3.2-7.1s-18.2-4.6-18.3-5.7s4.4-4.5,3.7-6.2
		s-18.5-1.3-18.9-1.9s0.5-4.7,0-6s-21.6,3-21.6,3s-21-4.3-21.6-3s0.3,5.4,0,6s-18.1,0.2-18.9,1.9s3.8,5.2,3.7,6.2
		s-18.1,3.7-18.3,5.7s4.2,5.5,3.2,7.1S34.1,92,34.1,93.9s5.1,4.1,4.3,6s-9.7,15.5-9.6,16.4s6,0.6,6.9,2.1s-5.3,16.2-5,18
		s2.8,1.6,5,1.5s-0.6,17.7,0,18.1s4.6-1.3,5.1,1.2c0.9,5.3,2.5,10.4,4.9,15.2c0,0,3,6.2,3.8,6.1c1.4-0.4,2.8-0.9,4.2-1.5
		c0,0,3,6.9,4.1,6.9c1.4-0.3,2.9-0.7,4.2-1.2c0,0,3.8,5.5,4.7,5.5s5.1-2.5,5.1-2.5s4.6,6.2,6.2,6.3s1.5-4,1.5-4s10.2,6.5,10.9,6.2
		s1.2-4.5,1.2-4.5s7.3,6.3,9.4,6.3s9.4-6.3,9.4-6.3s0.5,4.2,1.2,4.5s10.9-6.2,10.9-6.2s-0.1,4.1,1.5,4s6.2-6.3,6.2-6.3
		s4.2,2.5,5.1,2.5s4.7-5.5,4.7-5.5c1.4,0.6,2.8,1,4.2,1.2c1.1,0,4.1-6.9,4.1-6.9c1.4,0.6,2.8,1.1,4.2,1.5c0.9,0.1,3.8-6.1,3.8-6.1
		c2.4-4.8,4-9.9,4.9-15.2c0.4-2.5,4.4-0.8,5.1-1.2s-2.1-18.2,0-18.1s4.6,0.3,5-1.5s-5.8-16.5-5-18s6.8-1.3,6.9-2.1
		s-8.8-14.4-9.6-16.4S167.9,95.9,167.9,93.9z"/>
	<path class="st4" d="M136.9,103.4c-1.3-0.1-0.8,2.5-2.7,2.6s-7.3-7.7-8-4.9s-9-4-11.5-4.4s-1.7,2.3-2.9,3.7s-8.2-3.2-10.8-3.2
		s-9.6,4.6-10.8,3.2s-0.5-4.1-2.9-3.7s-10.8,7.2-11.5,4.4s-6.1,5-8,4.9s-1.4-2.7-2.7-2.6s-6.3,10.1-6.3,14l0,0v19.1
		c0,23.7,19.4,43.3,43.1,42.8c23-0.5,41.4-19.2,41.4-42.2v-19.7C143.2,113.5,138.2,103.5,136.9,103.4z"/>
	<path class="st5" d="M85.6,150.1c0,8.5,6.9,15.4,15.4,15.4c8.5,0,15.4-6.9,15.4-15.4l0,0H85.6z"/>
	<circle class="st6" cx="81.7" cy="126.5" r="3.9"/>
	<circle class="st6" cx="120.3" cy="126.5" r="3.9"/>
</g>
</svg>
