<svg xmlns="http://www.w3.org/2000/svg" viewBox="0 0 841.89 595.28"><defs><style>.cls-1{fill:#d52d28;}.cls-2{fill:#e1c56b;}.cls-3{fill:#f6e7a4;}.cls-4{fill:#fdfbec;}.cls-5{fill:#efb0af;}.cls-6{fill:#fff;}.cls-7{fill:#593c0e;}</style></defs><title>Mittens_Branding</title><g id="Layer_3_copy" data-name="Layer 3 copy"><path class="cls-1" d="M277.56,282.67h-64V362.6h21.32V304h5.33V362.6h21.32V304h5.33V362.6h21.32V293.33a10.66,10.66,0,0,0-10.66-10.66Z"/><path class="cls-1" d="M559,282.67H521.72V362.6H543V304h5.33V362.6H569.7V293.33A10.66,10.66,0,0,0,559,282.67Z"/><path class="cls-1" d="M436.39,256a21.32,21.32,0,0,0-21.32,21.32V320a10.66,10.66,0,0,0,10.66,10.66h21.32v37.31a10.66,10.66,0,0,1-10.66,10.66h-48a10.66,10.66,0,0,1-10.66-10.66v-16H399.1a10.66,10.66,0,0,0,10.66-10.66V298.65a21.32,21.32,0,0,0-42.65,0v69.28a21.33,21.33,0,0,0,21.33,21.32h48a21.32,21.32,0,0,0,21.32-21.32h0V330.62h0V277.33A21.32,21.32,0,0,0,436.39,256Z"/><path class="cls-2" d="M516.38,304v-10.7a10.66,10.66,0,0,0-10.66-10.66h-32a10.62,10.62,0,0,0-10.62,10.62V352a10.62,10.62,0,0,0,10.62,10.62h42.65V341.31H484.41C502.05,341.31,516.36,321.68,516.38,304ZM495,309.32h0A10.66,10.66,0,0,1,484.37,320h0V304H495Z"/><path class="cls-2" d="M585.57,282.67A10.53,10.53,0,0,0,575,293.33h0L574.9,304h.1a19.92,19.92,0,0,0,8.87,16.58L607,336v5.33H596.32V336H575v5.33h-.1V352a10.76,10.76,0,0,0,10.76,10.62h32A10.62,10.62,0,0,0,628.31,352v-10.7h0a20,20,0,0,0-8.89-16.61l-23.09-15.39V304H607v5.31h21.32v-16h0a10.66,10.66,0,0,0-10.66-10.66H585.57Z"/><path class="cls-3" d="M447.05,288h-5.33v21.32h5.33V320H436.39a5.34,5.34,0,0,1-5.33-5.33V288h-5.33V277.33h5.33V266.67h10.66v10.66h5.33Z"/><path class="cls-3" d="M377.77,298.65h5.33V288h10.66v10.66h5.33v10.66h-5.33v21.32h5.33v10.66H388.43A5.34,5.34,0,0,1,383.1,336V309.31h-5.33Z"/><path class="cls-1" d="M354.37,305.31s-1.43,3-1.85,2.92a18.26,18.26,0,0,1-2-.72s-1.43,3.34-2,3.34a9.53,9.53,0,0,1-2-.6s-1.85,2.62-2.27,2.62a13.37,13.37,0,0,1-2.44-1.19s-2.21,3-3,3-.72-1.94-.72-1.94-4.89,3.1-5.25,3-.6-2.15-.6-2.15-3.52,3-4.53,3-4.53-3-4.53-3-.24,2-.6,2.15-5.25-3-5.25-3,.06,2-.72,1.94-3-3-3-3a13.37,13.37,0,0,1-2.44,1.19c-.42,0-2.27-2.62-2.27-2.62a9.53,9.53,0,0,1-2,.6c-.54,0-2-3.34-2-3.34a18.26,18.26,0,0,1-2,.72c-.42.06-1.85-2.92-1.85-2.92s-1,0-1.7,0A34,34,0,0,0,294.54,332h66.34a34,34,0,0,0-4.82-26.67C355.36,305.34,354.37,305.31,354.37,305.31Z"/><path class="cls-4" d="M327.59,207.83s8.07-2.39,9-1.67.52,2.66.52,2.66,6.84-1.59,7.63-.64.48,3,.48,3,7.39.16,7.71.87-.6,2.72-.6,2.72,6.14.42,7,1.61-.36,3.52-.36,3.52,6.92.54,7,1.91-2.39,3.1-2.39,3.1,7.57,1.37,7.75,2.74-2.62,3.58-2.62,3.58,7.63,2.33,7.63,4-2.8,2.8-2.8,2.8,6.2,2.5,6.2,4.05-1.91,3.28-1.91,3.28,4.95,4.47,4.53,6-2.86,2-2.86,2,3.58,4.35,3.28,5.72S380.5,261,380.5,261s3.1,4.29,3,5.25-2.56,2.39-2.56,2.39,2,4.53,1.67,5.78-2.09,2-2.09,2,1.67,4.71,1.25,5.66-2.15,1.13-2.15,1.13,1,4.53.54,4.65a20.91,20.91,0,0,0-1.91.89s.12,4.41-.48,4.83-2.39,0-2.39,0S375,298,374.3,298a12.25,12.25,0,0,1-2.62-.48s-.48,4.05-1.37,4a8.49,8.49,0,0,1-2.44-.89s-1.07,4.59-1.73,4.67-3,0-3,0-1.91,4-2.46,3.9a24.35,24.35,0,0,1-2.7-1s-1.91,4.45-2.62,4.45a12.71,12.71,0,0,1-2.7-.8s-2.46,3.5-3,3.5a17.82,17.82,0,0,1-3.26-1.59s-2.94,4-4,4-1-2.58-1-2.58-6.52,4.13-7,4-.8-2.86-.8-2.86-4.69,4.05-6,4.05-6-4.05-6-4.05-.32,2.7-.8,2.86-7-4-7-4,.08,2.62-1,2.58-4-4-4-4a17.82,17.82,0,0,1-3.26,1.59c-.56,0-3-3.5-3-3.5a12.71,12.71,0,0,1-2.7.8c-.72,0-2.62-4.45-2.62-4.45a24.35,24.35,0,0,1-2.7,1c-.56.08-2.46-3.9-2.46-3.9s-2.35.08-3,0-1.73-4.67-1.73-4.67a8.49,8.49,0,0,1-2.44.89c-.89.06-1.37-4-1.37-4a12.25,12.25,0,0,1-2.62.48c-.72-.06-1.07-4.41-1.07-4.41s-1.79.42-2.39,0-.48-4.83-.48-4.83a20.91,20.91,0,0,0-1.91-.89c-.42-.12.54-4.65.54-4.65s-1.73-.18-2.15-1.13,1.25-5.66,1.25-5.66-1.79-.78-2.09-2,1.67-5.78,1.67-5.78-2.44-1.43-2.56-2.39,3-5.25,3-5.25-2-.54-2.33-1.91,3.28-5.72,3.28-5.72-2.44-.42-2.86-2,4.53-6,4.53-6-1.91-1.73-1.91-3.28,6.2-4.05,6.2-4.05-2.8-1.13-2.8-2.8,7.63-4,7.63-4-2.8-2.21-2.62-3.58,7.75-2.74,7.75-2.74-2.44-1.73-2.39-3.1,7-1.91,7-1.91-1.25-2.33-.36-3.52,7-1.61,7-1.61-.91-2-.6-2.72,7.71-.87,7.71-.87-.32-2.07.48-3,7.63.64,7.63.64-.44-1.95.52-2.66S327.59,207.83,327.59,207.83Z"/><path class="cls-3" d="M327.59,217.31s7-2.06,7.79-1.44.45,2.3.45,2.3,5.9-1.37,6.59-.55a4.06,4.06,0,0,1,.41,2.61s6.38.14,6.66.75-.51,2.35-.51,2.35,5.3.36,6.07,1.39-.31,3-.31,3,6,.46,6,1.65-2.06,2.68-2.06,2.68,6.54,1.18,6.69,2.37-2.26,3.09-2.26,3.09,6.59,2,6.59,3.45-2.42,2.42-2.42,2.42,5.35,2.16,5.35,3.5-1.65,2.83-1.65,2.83,4.27,3.86,3.91,5.2-2.47,1.7-2.47,1.7,3.09,3.76,2.83,4.94-2,1.65-2,1.65,2.68,3.7,2.57,4.53-2.21,2.06-2.21,2.06,1.7,3.91,1.44,5-1.8,1.75-1.8,1.75,1.44,4.07,1.08,4.89-1.85,1-1.85,1,.82,3.91.46,4a18,18,0,0,0-1.65.77s.1,3.81-.41,4.17-2.06,0-2.06,0-.31,3.76-.93,3.81a10.57,10.57,0,0,1-2.26-.41s-.41,3.5-1.18,3.45a7.33,7.33,0,0,1-2.11-.77s-.93,4-1.49,4-2.59,0-2.59,0-1.65,3.43-2.13,3.36a21,21,0,0,1-2.33-.82s-1.65,3.84-2.26,3.84a11,11,0,0,1-2.33-.69s-2.13,3-2.61,3a15.38,15.38,0,0,1-2.81-1.37s-2.54,3.43-3.43,3.46-.82-2.23-.82-2.23-5.63,3.57-6,3.43-.69-2.47-.69-2.47-4,3.5-5.21,3.5-5.21-3.5-5.21-3.5-.27,2.33-.69,2.47-6-3.43-6-3.43.07,2.26-.82,2.23-3.43-3.46-3.43-3.46a15.38,15.38,0,0,1-2.81,1.37c-.48,0-2.61-3-2.61-3a11,11,0,0,1-2.33.69c-.62,0-2.26-3.84-2.26-3.84a21,21,0,0,1-2.33.82c-.48.07-2.13-3.36-2.13-3.36s-2,.07-2.59,0-1.49-4-1.49-4a7.33,7.33,0,0,1-2.11.77c-.77.05-1.18-3.45-1.18-3.45a10.57,10.57,0,0,1-2.26.41c-.62-.05-.93-3.81-.93-3.81s-1.54.36-2.06,0-.41-4.17-.41-4.17a18,18,0,0,0-1.65-.77c-.36-.1.46-4,.46-4s-1.49-.15-1.85-1,1.08-4.89,1.08-4.89-1.54-.67-1.8-1.75,1.44-5,1.44-5-2.11-1.23-2.21-2.06,2.57-4.53,2.57-4.53-1.75-.46-2-1.65,2.83-4.94,2.83-4.94-2.11-.36-2.47-1.7,3.91-5.2,3.91-5.2-1.65-1.49-1.65-2.83,5.35-3.5,5.35-3.5-2.42-1-2.42-2.42,6.59-3.45,6.59-3.45-2.42-1.9-2.26-3.09,6.69-2.37,6.69-2.37-2.11-1.49-2.06-2.68,6-1.65,6-1.65-1.08-2-.31-3,6.07-1.39,6.07-1.39-.79-1.73-.51-2.35,6.66-.75,6.66-.75a4.06,4.06,0,0,1,.41-2.61c.69-.82,6.59.55,6.59.55s-.38-1.68.45-2.3S327.59,217.31,327.59,217.31Z"/><path class="cls-2" d="M364.64,258c0-1.07-7.81-5.78-8.35-6.68s1.91-2.8,1.79-3.94S348,244.8,347.95,244.2s2.44-2.5,2-3.46-10.26-.72-10.43-1.07.3-2.62,0-3.34S327.59,238,327.59,238s-11.65-2.39-11.95-1.67.18,3,0,3.34-10,.12-10.43,1.07,2.09,2.86,2,3.46-10,2-10.14,3.16,2.33,3,1.79,3.94-8.35,5.61-8.35,6.68,2.8,2.27,2.39,3.34-5.37,8.59-5.31,9.06,3.34.36,3.82,1.19-2.92,8.94-2.74,10,1.55.89,2.74.83-.36,9.78,0,10,2.56-.72,2.8.66a30.63,30.63,0,0,0,2.68,8.43s1.65,3.43,2.13,3.36a21,21,0,0,0,2.33-.82s1.65,3.84,2.26,3.84a11,11,0,0,0,2.33-.69s2.13,3,2.61,3a15.38,15.38,0,0,0,2.81-1.37s2.54,3.43,3.43,3.46.82-2.23.82-2.23,5.63,3.57,6,3.43.69-2.47.69-2.47,4,3.5,5.21,3.5,5.21-3.5,5.21-3.5.27,2.33.69,2.47,6-3.43,6-3.43-.07,2.26.82,2.23,3.43-3.46,3.43-3.46a15.38,15.38,0,0,0,2.81,1.37c.48,0,2.61-3,2.61-3a11,11,0,0,0,2.33.69c.62,0,2.26-3.84,2.26-3.84a21,21,0,0,0,2.33.82c.48.07,2.13-3.36,2.13-3.36a30.63,30.63,0,0,0,2.68-8.43c.24-1.37,2.44-.42,2.8-.66s-1.19-10.08,0-10,2.56.18,2.74-.83-3.22-9.12-2.74-10,3.76-.72,3.82-1.19-4.89-8-5.31-9.06S364.64,259,364.64,258Z"/><path class="cls-5" d="M347.49,263.23c-.7,0-.44,1.4-1.49,1.44s-4-4.26-4.43-2.72-5-2.24-6.37-2.46-1,1.27-1.62,2.06-4.54-1.76-6-1.76-5.32,2.55-6,1.76-.26-2.28-1.62-2.06-6,4-6.37,2.46-3.38,2.77-4.43,2.72-.79-1.48-1.49-1.44-3.48,5.57-3.48,7.72h0v10.56a23.63,23.63,0,0,0,23.86,23.7A23.38,23.38,0,0,0,351,281.84V271C351,268.8,348.19,263.27,347.49,263.23Z"/><path class="cls-6" d="M319.06,289.05a8.54,8.54,0,0,0,17.07,0Z"/><circle class="cls-7" cx="316.88" cy="276.03" r="2.17"/><circle class="cls-7" cx="338.3" cy="276.03" r="2.17"/><path class="cls-1" d="M293.55,323.65h68.24a0,0,0,0,1,0,0V352a10.63,10.63,0,0,1-10.63,10.63h-47A10.63,10.63,0,0,1,293.55,352V323.65A0,0,0,0,1,293.55,323.65Z"/></g></svg>