<?xml version="1.0" encoding="utf-8"?>
<!-- Generator: Adobe Illustrator 21.1.0, SVG Export Plug-In . SVG Version: 6.00 Build 0)  -->
<svg version="1.1" id="Layer_1" xmlns="http://www.w3.org/2000/svg" xmlns:xlink="http://www.w3.org/1999/xlink" x="0px" y="0px"
	 viewBox="0 0 414.8 183.2" style="enable-background:new 0 0 414.8 183.2;" xml:space="preserve">
<style type="text/css">
	.st0{fill:#D52D28;}
	.st1{fill:#E1C56B;}
	.st2{fill:#F6E7A4;}
	.st3{fill:#FDFBEC;}
	.st4{fill:#EFB0AF;}
	.st5{fill:#FFFFFF;}
	.st6{fill:#593C0E;}
</style>
<title>Mittens_Branding</title>
<g id="Layer_3_copy">
	<path class="st0" d="M64,76.6H0v79.9h21.3V98h5.3v58.6H48V98h5.3v58.6h21.3V87.3C74.6,81.4,69.8,76.6,64,76.6L64,76.6L64,76.6z"/>
	<path class="st0" d="M345.4,76.6h-37.3v79.9h21.3V98h5.3v58.6h21.4V87.3C356.1,81.4,351.4,76.6,345.4,76.6
		C345.5,76.6,345.5,76.6,345.4,76.6z"/>
	<path class="st0" d="M222.8,50c-11.8,0-21.3,9.5-21.3,21.3l0,0V114c0,5.9,4.8,10.7,10.7,10.7l0,0h21.3v37.3
		c0,5.9-4.8,10.7-10.7,10.7l0,0h-48c-5.9,0-10.7-4.8-10.7-10.7l0,0v-16h21.4c5.9,0,10.7-4.8,10.7-10.7l0,0V92.6
		c0-11.8-9.5-21.3-21.3-21.3c-11.8,0-21.3,9.5-21.3,21.3v69.3c0,11.8,9.6,21.3,21.3,21.3h48c11.8,0,21.3-9.5,21.3-21.3l0,0l0,0
		v-37.3l0,0V71.3C244.2,59.5,234.7,50,222.8,50C222.9,50,222.9,50,222.8,50z"/>
	<path class="st1" d="M302.8,98V87.3c0-5.9-4.8-10.7-10.7-10.7l0,0h-32c-5.9,0-10.6,4.8-10.6,10.6V146c0,5.9,4.8,10.6,10.6,10.6
		h42.6v-21.3h-32C288.5,135.3,302.8,115.7,302.8,98z M281.4,103.3L281.4,103.3c0,5.9-4.7,10.7-10.6,10.7l0,0V98h10.6V103.3z"/>
	<path class="st1" d="M372,76.6c-5.8,0-10.5,4.7-10.6,10.5c0,0.1,0,0.1,0,0.2l0,0L361.3,98h0.1c0,6.7,3.3,12.9,8.9,16.6l23.1,15.4
		v5.3h-10.7V130h-21.3v5.3h-0.1V146c0.1,5.9,4.9,10.6,10.8,10.6h32c5.9,0,10.6-4.7,10.6-10.6c0,0,0,0,0,0v-10.7l0,0
		c0-6.7-3.3-12.9-8.9-16.6l-23.1-15.4V98h10.7v5.3h21.3v-16l0,0c0-5.9-4.8-10.7-10.7-10.7L372,76.6L372,76.6z"/>
	<path class="st2" d="M233.5,82h-5.3v21.3h5.3V114h-10.7c-2.9,0-5.3-2.4-5.3-5.3V82h-5.3V71.3h5.3V60.6h10.7v10.7h5.3L233.5,82z"/>
	<path class="st2" d="M164.2,92.6h5.3V82h10.7v10.7h5.3v10.7h-5.3v21.3h5.3v10.7h-10.7c-2.9,0-5.3-2.4-5.3-5.3v-26.7h-5.3
		L164.2,92.6z"/>
	<path class="st0" d="M140.8,99.3c0,0-1.4,3-1.9,2.9c-0.7-0.2-1.3-0.4-2-0.7c0,0-1.4,3.3-2,3.3c-0.7-0.1-1.4-0.3-2-0.6
		c0,0-1.9,2.6-2.3,2.6c-0.9-0.3-1.7-0.7-2.4-1.2c0,0-2.2,3-3,3s-0.7-1.9-0.7-1.9s-4.9,3.1-5.2,3s-0.6-2.1-0.6-2.1s-3.5,3-4.5,3
		s-4.5-3-4.5-3s-0.2,2-0.6,2.1s-5.2-3-5.2-3s0.1,2-0.7,1.9s-3-3-3-3c-0.8,0.5-1.6,0.9-2.4,1.2c-0.4,0-2.3-2.6-2.3-2.6
		c-0.6,0.3-1.3,0.5-2,0.6c-0.5,0-2-3.3-2-3.3c-0.7,0.3-1.3,0.5-2,0.7c-0.4,0.1-1.9-2.9-1.9-2.9s-1,0-1.7,0c-5.2,7.8-7,17.5-4.8,26.7
		h66.3c2.2-9.2,0.4-18.8-4.8-26.7C141.8,99.3,140.8,99.3,140.8,99.3z"/>
	<path class="st3" d="M114,1.8c0,0,8.1-2.4,9-1.7s0.5,2.7,0.5,2.7s6.8-1.6,7.6-0.6s0.5,3,0.5,3s7.4,0.2,7.7,0.9s-0.6,2.7-0.6,2.7
		s6.1,0.4,7,1.6s-0.4,3.5-0.4,3.5s6.9,0.5,7,1.9s-2.4,3.1-2.4,3.1s7.6,1.4,7.8,2.7s-2.6,3.6-2.6,3.6s7.6,2.3,7.6,4S160,32,160,32
		s6.2,2.5,6.2,4.1s-1.9,3.3-1.9,3.3s5,4.5,4.5,6s-2.9,2-2.9,2s3.6,4.3,3.3,5.7s-2.3,1.9-2.3,1.9s3.1,4.3,3,5.2s-2.6,2.4-2.6,2.4
		s2,4.5,1.7,5.8s-2.1,2-2.1,2s1.7,4.7,1.2,5.7s-2.1,1.1-2.1,1.1s1,4.5,0.5,4.6c-0.7,0.3-1.3,0.6-1.9,0.9c0,0,0.1,4.4-0.5,4.8
		s-2.4,0-2.4,0s-0.4,4.4-1.1,4.4c-0.9-0.1-1.8-0.2-2.6-0.5c0,0-0.5,4-1.4,4c-0.9-0.2-1.7-0.5-2.4-0.9c0,0-1.1,4.6-1.7,4.7s-3,0-3,0
		s-1.9,4-2.5,3.9c-0.9-0.3-1.8-0.6-2.7-1c0,0-1.9,4.5-2.6,4.5c-0.9-0.2-1.8-0.4-2.7-0.8c0,0-2.5,3.5-3,3.5c-1.1-0.4-2.2-1-3.3-1.6
		c0,0-2.9,4-4,4s-1-2.6-1-2.6s-6.5,4.1-7,4s-0.8-2.9-0.8-2.9s-4.7,4-6,4s-6-4-6-4s-0.3,2.7-0.8,2.9s-7-4-7-4s0.1,2.6-1,2.6s-4-4-4-4
		c-1,0.6-2.1,1.2-3.3,1.6c-0.6,0-3-3.5-3-3.5c-0.9,0.4-1.8,0.6-2.7,0.8c-0.7,0-2.6-4.5-2.6-4.5c-0.9,0.4-1.8,0.7-2.7,1
		c-0.6,0.1-2.5-3.9-2.5-3.9s-2.4,0.1-3,0s-1.7-4.7-1.7-4.7c-0.8,0.4-1.6,0.7-2.4,0.9c-0.9,0.1-1.4-4-1.4-4c-0.9,0.3-1.7,0.4-2.6,0.5
		c-0.7-0.1-1.1-4.4-1.1-4.4s-1.8,0.4-2.4,0s-0.5-4.8-0.5-4.8c-0.6-0.3-1.3-0.6-1.9-0.9c-0.4-0.1,0.5-4.6,0.5-4.6s-1.7-0.2-2.1-1.1
		s1.2-5.7,1.2-5.7s-1.8-0.8-2.1-2s1.7-5.8,1.7-5.8s-2.4-1.4-2.6-2.4s3-5.2,3-5.2s-2-0.5-2.3-1.9s3.3-5.7,3.3-5.7s-2.4-0.4-2.9-2
		s4.5-6,4.5-6s-1.9-1.7-1.9-3.3s6.2-4.1,6.2-4.1s-2.8-1.1-2.8-2.8s7.6-4,7.6-4s-2.8-2.2-2.6-3.6s7.8-2.7,7.8-2.7s-2.4-1.7-2.4-3.1
		s7-1.9,7-1.9s-1.2-2.3-0.4-3.5s7-1.6,7-1.6s-0.9-2-0.6-2.7s7.7-0.9,7.7-0.9s-0.3-2.1,0.5-3s7.6,0.6,7.6,0.6s-0.4-1.9,0.5-2.7
		S114,1.8,114,1.8z"/>
	<path class="st2" d="M114,11.3c0,0,7-2.1,7.8-1.4s0.5,2.3,0.5,2.3s5.9-1.4,6.6-0.6c0.4,0.8,0.6,1.7,0.4,2.6c0,0,6.4,0.1,6.7,0.8
		s-0.5,2.4-0.5,2.4s5.3,0.4,6.1,1.4s-0.3,3-0.3,3s6,0.5,6,1.6s-2.1,2.7-2.1,2.7s6.5,1.2,6.7,2.4s-2.3,3.1-2.3,3.1s6.6,2,6.6,3.4
		s-2.4,2.4-2.4,2.4s5.4,2.2,5.4,3.5s-1.6,2.8-1.6,2.8s4.3,3.9,3.9,5.2s-2.5,1.7-2.5,1.7s3.1,3.8,2.8,4.9s-2,1.6-2,1.6
		s2.7,3.7,2.6,4.5s-2.2,2.1-2.2,2.1s1.7,3.9,1.4,5s-1.8,1.8-1.8,1.8s1.4,4.1,1.1,4.9s-1.9,1-1.9,1s0.8,3.9,0.5,4
		c-0.6,0.2-1.1,0.5-1.6,0.8c0,0,0.1,3.8-0.4,4.2s-2.1,0-2.1,0s-0.3,3.8-0.9,3.8c-0.8-0.1-1.5-0.2-2.3-0.4c0,0-0.4,3.5-1.2,3.5
		c-0.7-0.1-1.5-0.4-2.1-0.8c0,0-0.9,4-1.5,4s-2.6,0-2.6,0s-1.6,3.4-2.1,3.4c-0.8-0.2-1.6-0.5-2.3-0.8c0,0-1.6,3.8-2.3,3.8
		c-0.8-0.1-1.6-0.4-2.3-0.7c0,0-2.1,3-2.6,3c-1-0.4-1.9-0.8-2.8-1.4c0,0-2.5,3.4-3.4,3.5S126,104,126,104s-5.6,3.6-6,3.4
		s-0.7-2.5-0.7-2.5s-4,3.5-5.2,3.5s-5.2-3.5-5.2-3.5s-0.3,2.3-0.7,2.5s-6-3.4-6-3.4s0.1,2.3-0.8,2.2s-3.4-3.5-3.4-3.5
		c-0.9,0.6-1.8,1-2.8,1.4c-0.5,0-2.6-3-2.6-3c-0.7,0.3-1.5,0.5-2.3,0.7c-0.6,0-2.3-3.8-2.3-3.8c-0.8,0.3-1.5,0.6-2.3,0.8
		c-0.5,0.1-2.1-3.4-2.1-3.4s-2,0.1-2.6,0s-1.5-4-1.5-4c-0.7,0.4-1.4,0.6-2.1,0.8c-0.8,0-1.2-3.5-1.2-3.5c-0.7,0.2-1.5,0.4-2.3,0.4
		c-0.6,0-0.9-3.8-0.9-3.8s-1.5,0.4-2.1,0s-0.4-4.2-0.4-4.2c-0.5-0.3-1.1-0.5-1.6-0.8c-0.4-0.1,0.5-4,0.5-4s-1.5-0.1-1.9-1
		s1.1-4.9,1.1-4.9s-1.5-0.7-1.8-1.8s1.4-5,1.4-5s-2.1-1.2-2.2-2.1s2.6-4.5,2.6-4.5s-1.8-0.5-2-1.6s2.8-4.9,2.8-4.9s-2.1-0.4-2.5-1.7
		s3.9-5.2,3.9-5.2s-1.6-1.5-1.6-2.8s5.4-3.5,5.4-3.5s-2.4-1-2.4-2.4s6.6-3.4,6.6-3.4s-2.4-1.9-2.3-3.1S83,26,83,26s-2.1-1.5-2.1-2.7
		s6-1.6,6-1.6s-1.1-2-0.3-3s6.1-1.4,6.1-1.4S92,15.6,92.2,15s6.7-0.8,6.7-0.8c-0.2-0.9,0-1.8,0.4-2.6c0.7-0.8,6.6,0.6,6.6,0.6
		s-0.4-1.7,0.5-2.3S114,11.3,114,11.3z"/>
	<path class="st1" d="M151.1,52c0-1.1-7.8-5.8-8.4-6.7s1.9-2.8,1.8-3.9s-10.1-2.6-10.1-3.2s2.4-2.5,2-3.5S126.1,34,126,33.6
		s0.3-2.6,0-3.3S114,32,114,32s-11.6-2.4-12-1.7s0.2,3,0,3.3s-10,0.1-10.4,1.1s2.1,2.9,2,3.5s-10,2-10.1,3.2s2.3,3,1.8,3.9
		s-8.4,5.6-8.4,6.7s2.8,2.3,2.4,3.3S74,63.9,74,64.4c0.1,0.5,3.3,0.4,3.8,1.2s-2.9,8.9-2.7,10s1.5,0.9,2.7,0.8s-0.4,9.8,0,10
		s2.6-0.7,2.8,0.7c0.5,2.9,1.4,5.8,2.7,8.4c0,0,1.6,3.4,2.1,3.4c0.8-0.2,1.6-0.5,2.3-0.8c0,0,1.6,3.8,2.3,3.8
		c0.8-0.1,1.6-0.4,2.3-0.7c0,0,2.1,3,2.6,3c1-0.4,1.9-0.8,2.8-1.4c0,0,2.5,3.4,3.4,3.5s0.8-2.2,0.8-2.2s5.6,3.6,6,3.4
		s0.7-2.5,0.7-2.5s4,3.5,5.2,3.5s5.2-3.5,5.2-3.5s0.3,2.3,0.7,2.5s6-3.4,6-3.4s-0.1,2.3,0.8,2.2s3.4-3.5,3.4-3.5
		c0.9,0.6,1.8,1,2.8,1.4c0.5,0,2.6-3,2.6-3c0.7,0.3,1.5,0.5,2.3,0.7c0.6,0,2.3-3.8,2.3-3.8c0.8,0.3,1.5,0.6,2.3,0.8
		c0.5,0.1,2.1-3.4,2.1-3.4c1.3-2.7,2.2-5.5,2.7-8.4c0.2-1.4,2.4-0.4,2.8-0.7s-1.2-10.1,0-10s2.6,0.2,2.7-0.8s-3.2-9.1-2.7-10
		s3.8-0.7,3.8-1.2c0.1-0.5-4.9-8-5.3-9.1S151.1,53,151.1,52z"/>
	<path class="st4" d="M133.9,57.2c-0.7,0-0.4,1.4-1.5,1.4s-4-4.3-4.4-2.7s-5-2.2-6.4-2.5s-1,1.3-1.6,2.1s-4.5-1.8-6-1.8
		s-5.3,2.5-6,1.8s-0.3-2.3-1.6-2.1s-6,4-6.4,2.5s-3.4,2.8-4.4,2.7s-0.8-1.5-1.5-1.4s-3.5,5.6-3.5,7.7l0,0v10.6
		c0,13.1,10.5,23.7,23.6,23.7c0.1,0,0.2,0,0.3,0c12.7-0.2,22.9-10.6,22.9-23.4V65C137.4,62.8,134.6,57.2,133.9,57.2z"/>
	<path class="st5" d="M105.5,83c0.2,4.7,4.1,8.4,8.8,8.2c4.5-0.2,8.1-3.8,8.2-8.2H105.5z"/>
	<circle class="st6" cx="103.3" cy="70" r="2.2"/>
	<circle class="st6" cx="124.7" cy="70" r="2.2"/>
	<path class="st0" d="M80,117.6h68.2l0,0V146c0,5.9-4.8,10.6-10.6,10.6l0,0h-47c-5.9,0-10.6-4.8-10.6-10.6V117.6L80,117.6z"/>
</g>
</svg>
