<svg xmlns="http://www.w3.org/2000/svg" viewBox="0 0 159.41 168.78"><defs><style>.cls-1{fill:#cb2c30}</style></defs><g id="Layer_2" data-name="Layer 2"><g id="Layer_1-2" data-name="Layer 1"><path class="cls-1" d="M103.15 32.82a23.22 23.22 0 014.11-13.22 18.68 18.68 0 00-13.49 17.91v15l9.38.47zM93.77 136a18.7 18.7 0 0013.49 17.92 23.27 23.27 0 01-4.11-13.23v-28.17h-9.38zm23.44-23.48h-9.38v28.13a18.69 18.69 0 0013.49 17.91 23.29 23.29 0 01-4.11-13.22zm0-84.39a23.32 23.32 0 014.11-13.22 18.69 18.69 0 00-13.49 17.91v20.39l9.38.47zM11.5 22.12A23.35 23.35 0 000 42.2v89.08a23.35 23.35 0 0011.5 20.07 28 28 0 01-2.12-10.7V32.82a28 28 0 012.12-10.7zm11.94 1.32a27.82 27.82 0 012.13-10.69 23.33 23.33 0 00-11.5 20.07v107.83a23.38 23.38 0 0015.31 21.91 27.92 27.92 0 01-5.94-17.22z"/><path class="cls-1" d="M140.65 9.38a18.75 18.75 0 00-18.75 18.75v30.48L75 56.26V23.44a23.44 23.44 0 00-46.88 0v121.9a23.44 23.44 0 0046.88 0v-37.51h46.9v37.51a18.76 18.76 0 0037.51 0V28.13a18.75 18.75 0 00-18.76-18.75z"/><path class="cls-1" d="M159.41 145.34a18.76 18.76 0 01-37.51 0v-37.51H75v37.51a23.44 23.44 0 01-46.88 0V23.44a23.44 23.44 0 0146.88 0v32.82l46.89 2.35V28.13a18.76 18.76 0 0137.51 0z"/></g></g></svg>