<svg version="1.1" id="Layer_1" xmlns="http://www.w3.org/2000/svg" x="0" y="0" viewBox="0 0 414.8 183.2" xml:space="preserve"><style>.st0{fill:#d52d28}.st1{fill:#e1c56b}.st2{fill:#f6e7a4}.st6{fill:#593c0e}</style><g id="Layer_3_copy"><path class="st0" d="M64 76.6H0v79.9h21.3V98h5.3v58.6H48V98h5.3v58.6h21.3V87.3c0-5.9-4.8-10.7-10.6-10.7zm281.4 0h-37.3v79.9h21.3V98h5.3v58.6h21.4V87.3c0-5.9-4.7-10.7-10.7-10.7.1 0 .1 0 0 0zM222.8 50c-11.8 0-21.3 9.5-21.3 21.3V114c0 5.9 4.8 10.7 10.7 10.7h21.3V162c0 5.9-4.8 10.7-10.7 10.7h-48c-5.9 0-10.7-4.8-10.7-10.7v-16h21.4c5.9 0 10.7-4.8 10.7-10.7V92.6c0-11.8-9.5-21.3-21.3-21.3s-21.3 9.5-21.3 21.3v69.3c0 11.8 9.6 21.3 21.3 21.3h48c11.8 0 21.3-9.5 21.3-21.3V71.3c0-11.8-9.5-21.3-21.4-21.3.1 0 .1 0 0 0z"/><path class="st1" d="M302.8 98V87.3c0-5.9-4.8-10.7-10.7-10.7h-32c-5.9 0-10.6 4.8-10.6 10.6V146c0 5.9 4.8 10.6 10.6 10.6h42.6v-21.3h-32c17.8 0 32.1-19.6 32.1-37.3zm-21.4 5.3c0 5.9-4.7 10.7-10.6 10.7V98h10.6v5.3zM372 76.6c-5.8 0-10.5 4.7-10.6 10.5v.2l-.1 10.7h.1c0 6.7 3.3 12.9 8.9 16.6l23.1 15.4v5.3h-10.7V130h-21.3v5.3h-.1V146c.1 5.9 4.9 10.6 10.8 10.6h32c5.9 0 10.6-4.7 10.6-10.6v-10.7c0-6.7-3.3-12.9-8.9-16.6l-23.1-15.4V98h10.7v5.3h21.3v-16c0-5.9-4.8-10.7-10.7-10.7h-32z"/><path class="st2" d="M233.5 82h-5.3v21.3h5.3V114h-10.7c-2.9 0-5.3-2.4-5.3-5.3V82h-5.3V71.3h5.3V60.6h10.7v10.7h5.3V82zm-69.3 10.6h5.3V82h10.7v10.7h5.3v10.7h-5.3v21.3h5.3v10.7h-10.7c-2.9 0-5.3-2.4-5.3-5.3v-26.7h-5.3V92.6z"/><path class="st0" d="M140.8 99.3s-1.4 3-1.9 2.9c-.7-.2-1.3-.4-2-.7 0 0-1.4 3.3-2 3.3-.7-.1-1.4-.3-2-.6 0 0-1.9 2.6-2.3 2.6-.9-.3-1.7-.7-2.4-1.2 0 0-2.2 3-3 3s-.7-1.9-.7-1.9-4.9 3.1-5.2 3-.6-2.1-.6-2.1-3.5 3-4.5 3-4.5-3-4.5-3-.2 2-.6 2.1-5.2-3-5.2-3 .1 2-.7 1.9-3-3-3-3c-.8.5-1.6.9-2.4 1.2-.4 0-2.3-2.6-2.3-2.6-.6.3-1.3.5-2 .6-.5 0-2-3.3-2-3.3-.7.3-1.3.5-2 .7-.4.1-1.9-2.9-1.9-2.9h-1.7c-5.2 7.8-7 17.5-4.8 26.7h66.3c2.2-9.2.4-18.8-4.8-26.7h-1.8z"/><path d="M114 1.8s8.1-2.4 9-1.7.5 2.7.5 2.7 6.8-1.6 7.6-.6.5 3 .5 3 7.4.2 7.7.9-.6 2.7-.6 2.7 6.1.4 7 1.6-.4 3.5-.4 3.5 6.9.5 7 1.9-2.4 3.1-2.4 3.1 7.6 1.4 7.8 2.7-2.6 3.6-2.6 3.6 7.6 2.3 7.6 4S160 32 160 32s6.2 2.5 6.2 4.1-1.9 3.3-1.9 3.3 5 4.5 4.5 6-2.9 2-2.9 2 3.6 4.3 3.3 5.7-2.3 1.9-2.3 1.9 3.1 4.3 3 5.2-2.6 2.4-2.6 2.4 2 4.5 1.7 5.8-2.1 2-2.1 2 1.7 4.7 1.2 5.7-2.1 1.1-2.1 1.1 1 4.5.5 4.6c-.7.3-1.3.6-1.9.9 0 0 .1 4.4-.5 4.8s-2.4 0-2.4 0-.4 4.4-1.1 4.4c-.9-.1-1.8-.2-2.6-.5 0 0-.5 4-1.4 4-.9-.2-1.7-.5-2.4-.9 0 0-1.1 4.6-1.7 4.7s-3 0-3 0-1.9 4-2.5 3.9c-.9-.3-1.8-.6-2.7-1 0 0-1.9 4.5-2.6 4.5-.9-.2-1.8-.4-2.7-.8 0 0-2.5 3.5-3 3.5-1.1-.4-2.2-1-3.3-1.6 0 0-2.9 4-4 4s-1-2.6-1-2.6-6.5 4.1-7 4-.8-2.9-.8-2.9-4.7 4-6 4-6-4-6-4-.3 2.7-.8 2.9-7-4-7-4 .1 2.6-1 2.6-4-4-4-4c-1 .6-2.1 1.2-3.3 1.6-.6 0-3-3.5-3-3.5-.9.4-1.8.6-2.7.8-.7 0-2.6-4.5-2.6-4.5-.9.4-1.8.7-2.7 1-.6.1-2.5-3.9-2.5-3.9s-2.4.1-3 0-1.7-4.7-1.7-4.7c-.8.4-1.6.7-2.4.9-.9.1-1.4-4-1.4-4-.9.3-1.7.4-2.6.5-.7-.1-1.1-4.4-1.1-4.4s-1.8.4-2.4 0-.5-4.8-.5-4.8c-.6-.3-1.3-.6-1.9-.9-.4-.1.5-4.6.5-4.6s-1.7-.2-2.1-1.1 1.2-5.7 1.2-5.7-1.8-.8-2.1-2 1.7-5.8 1.7-5.8-2.4-1.4-2.6-2.4 3-5.2 3-5.2-2-.5-2.3-1.9 3.3-5.7 3.3-5.7-2.4-.4-2.9-2 4.5-6 4.5-6-1.9-1.7-1.9-3.3 6.2-4.1 6.2-4.1-2.8-1.1-2.8-2.8 7.6-4 7.6-4-2.8-2.2-2.6-3.6 7.8-2.7 7.8-2.7-2.4-1.7-2.4-3.1 7-1.9 7-1.9-1.2-2.3-.4-3.5 7-1.6 7-1.6-.9-2-.6-2.7 7.7-.9 7.7-.9-.3-2.1.5-3 7.6.6 7.6.6-.4-1.9.5-2.7 9.3 1.7 9.3 1.7z" fill="#fdfbec"/><path class="st2" d="M114 11.3s7-2.1 7.8-1.4.5 2.3.5 2.3 5.9-1.4 6.6-.6c.4.8.6 1.7.4 2.6 0 0 6.4.1 6.7.8s-.5 2.4-.5 2.4 5.3.4 6.1 1.4-.3 3-.3 3 6 .5 6 1.6-2.1 2.7-2.1 2.7 6.5 1.2 6.7 2.4-2.3 3.1-2.3 3.1 6.6 2 6.6 3.4-2.4 2.4-2.4 2.4 5.4 2.2 5.4 3.5-1.6 2.8-1.6 2.8 4.3 3.9 3.9 5.2-2.5 1.7-2.5 1.7 3.1 3.8 2.8 4.9-2 1.6-2 1.6 2.7 3.7 2.6 4.5-2.2 2.1-2.2 2.1 1.7 3.9 1.4 5-1.8 1.8-1.8 1.8 1.4 4.1 1.1 4.9-1.9 1-1.9 1 .8 3.9.5 4c-.6.2-1.1.5-1.6.8 0 0 .1 3.8-.4 4.2s-2.1 0-2.1 0-.3 3.8-.9 3.8c-.8-.1-1.5-.2-2.3-.4 0 0-.4 3.5-1.2 3.5-.7-.1-1.5-.4-2.1-.8 0 0-.9 4-1.5 4h-2.6s-1.6 3.4-2.1 3.4c-.8-.2-1.6-.5-2.3-.8 0 0-1.6 3.8-2.3 3.8-.8-.1-1.6-.4-2.3-.7 0 0-2.1 3-2.6 3-1-.4-1.9-.8-2.8-1.4 0 0-2.5 3.4-3.4 3.5s-1-2.3-1-2.3-5.6 3.6-6 3.4-.7-2.5-.7-2.5-4 3.5-5.2 3.5-5.2-3.5-5.2-3.5-.3 2.3-.7 2.5-6-3.4-6-3.4.1 2.3-.8 2.2-3.4-3.5-3.4-3.5c-.9.6-1.8 1-2.8 1.4-.5 0-2.6-3-2.6-3-.7.3-1.5.5-2.3.7-.6 0-2.3-3.8-2.3-3.8-.8.3-1.5.6-2.3.8-.5.1-2.1-3.4-2.1-3.4s-2 .1-2.6 0-1.5-4-1.5-4c-.7.4-1.4.6-2.1.8-.8 0-1.2-3.5-1.2-3.5-.7.2-1.5.4-2.3.4-.6 0-.9-3.8-.9-3.8s-1.5.4-2.1 0-.4-4.2-.4-4.2c-.5-.3-1.1-.5-1.6-.8-.4-.1.5-4 .5-4s-1.5-.1-1.9-1 1.1-4.9 1.1-4.9-1.5-.7-1.8-1.8 1.4-5 1.4-5-2.1-1.2-2.2-2.1 2.6-4.5 2.6-4.5-1.8-.5-2-1.6 2.8-4.9 2.8-4.9-2.1-.4-2.5-1.7 3.9-5.2 3.9-5.2-1.6-1.5-1.6-2.8 5.4-3.5 5.4-3.5-2.4-1-2.4-2.4 6.6-3.4 6.6-3.4-2.4-1.9-2.3-3.1S83 26 83 26s-2.1-1.5-2.1-2.7 6-1.6 6-1.6-1.1-2-.3-3 6.1-1.4 6.1-1.4-.7-1.7-.5-2.3 6.7-.8 6.7-.8c-.2-.9 0-1.8.4-2.6.7-.8 6.6.6 6.6.6s-.4-1.7.5-2.3 7.6 1.4 7.6 1.4z"/><path class="st1" d="M151.1 52c0-1.1-7.8-5.8-8.4-6.7s1.9-2.8 1.8-3.9-10.1-2.6-10.1-3.2 2.4-2.5 2-3.5-10.3-.7-10.4-1.1.3-2.6 0-3.3-12 1.7-12 1.7-11.6-2.4-12-1.7.2 3 0 3.3-10 .1-10.4 1.1 2.1 2.9 2 3.5-10 2-10.1 3.2 2.3 3 1.8 3.9-8.4 5.6-8.4 6.7 2.8 2.3 2.4 3.3-5.3 8.6-5.3 9.1c.1.5 3.3.4 3.8 1.2s-2.9 8.9-2.7 10 1.5.9 2.7.8-.4 9.8 0 10 2.6-.7 2.8.7c.5 2.9 1.4 5.8 2.7 8.4 0 0 1.6 3.4 2.1 3.4.8-.2 1.6-.5 2.3-.8 0 0 1.6 3.8 2.3 3.8.8-.1 1.6-.4 2.3-.7 0 0 2.1 3 2.6 3 1-.4 1.9-.8 2.8-1.4 0 0 2.5 3.4 3.4 3.5s.8-2.2.8-2.2 5.6 3.6 6 3.4.7-2.5.7-2.5 4 3.5 5.2 3.5 5.2-3.5 5.2-3.5.3 2.3.7 2.5 6-3.4 6-3.4-.1 2.3.8 2.2 3.4-3.5 3.4-3.5c.9.6 1.8 1 2.8 1.4.5 0 2.6-3 2.6-3 .7.3 1.5.5 2.3.7.6 0 2.3-3.8 2.3-3.8.8.3 1.5.6 2.3.8.5.1 2.1-3.4 2.1-3.4 1.3-2.7 2.2-5.5 2.7-8.4.2-1.4 2.4-.4 2.8-.7s-1.2-10.1 0-10 2.6.2 2.7-.8-3.2-9.1-2.7-10 3.8-.7 3.8-1.2c.1-.5-4.9-8-5.3-9.1s2.8-2.3 2.8-3.3z"/><path d="M133.9 57.2c-.7 0-.4 1.4-1.5 1.4s-4-4.3-4.4-2.7-5-2.2-6.4-2.5-1 1.3-1.6 2.1-4.5-1.8-6-1.8-5.3 2.5-6 1.8-.3-2.3-1.6-2.1-6 4-6.4 2.5-3.4 2.8-4.4 2.7-.8-1.5-1.5-1.4-3.5 5.6-3.5 7.7v10.6c0 13.1 10.5 23.7 23.6 23.7h.3c12.7-.2 22.9-10.6 22.9-23.4V65c0-2.2-2.8-7.8-3.5-7.8z" fill="#efb0af"/><path d="M105.5 83c.2 4.7 4.1 8.4 8.8 8.2 4.5-.2 8.1-3.8 8.2-8.2h-17z" fill="#fff"/><circle class="st6" cx="103.3" cy="70" r="2.2"/><circle class="st6" cx="124.7" cy="70" r="2.2"/><path class="st0" d="M80 117.6h68.2V146c0 5.9-4.8 10.6-10.6 10.6h-47c-5.9 0-10.6-4.8-10.6-10.6v-28.4z"/></g></svg>