<svg version="1.1" id="Layer_1" xmlns="http://www.w3.org/2000/svg" x="0" y="0" viewBox="0 0 201.9 243.8" xml:space="preserve"><style>.st6{fill:#593c0e}</style><g id="Layer_3_copy"><path d="M165.2 179.5s-3.5 7.2-4.5 7c-1.7-.5-3.3-1.1-4.9-1.7 0 0-3.5 8-4.7 8s-4.9-1.4-4.9-1.4-4.5 6.3-5.5 6.3-5.9-2.9-5.9-2.9-5.3 7.2-7.2 7.2c-1.9.1-1.7-4.7-1.7-4.7s-11.8 7.5-12.6 7.2-1.4-5.2-1.4-5.2-8.5 7.3-10.9 7.3-10.9-7.2-10.9-7.2-.6 4.9-1.4 5.2-12.6-7.2-12.6-7.2.1 4.7-1.7 4.7-7.2-7.2-7.2-7.2-4.9 2.9-5.9 2.9-5.5-6.3-5.5-6.3-3.6 1.4-4.9 1.4-4.7-8-4.7-8c-1.6.7-3.2 1.2-4.9 1.7-1 .1-4.5-7-4.5-7s-2.4.1-4.1.1c-12.6 18.8-16.8 42.1-11.7 64.1h159.8c5.2-22.1 1-45.4-11.6-64.2-1.6 0-4-.1-4-.1z" fill="#d52d28"/><path d="M101 3.3s14.6-4.3 16.3-3 .9 4.8.9 4.8S130.6 2.3 132 4s.9 5.5.9 5.5 13.4.3 13.9 1.6-1.1 4.9-1.1 4.9 11.1.7 12.7 2.9-.6 6.4-.6 6.4 12.5 1 12.6 3.4-4.4 5.6-4.4 5.6 13.7 2.5 14 5-4.7 6.5-4.7 6.5 13.8 4.2 13.8 7.2-5.1 5-5.1 5 11.2 4.5 11.2 7.3-3.5 5.9-3.5 5.9 8.9 8.1 8.2 10.9c-.8 2.8-5.2 3.5-5.2 3.5s6.5 7.9 5.9 10.3-4.2 3.5-4.2 3.5 5.6 7.8 5.4 9.5-4.6 4.3-4.6 4.3 3.5 8.2 3 10.5-3.8 3.7-3.8 3.7 3 8.5 2.3 10.2-3.9 2-3.9 2 1.7 8.2 1 8.4c-1.2.5-2.3 1-3.5 1.6 0 0 .2 8-.9 8.7s-4.3 0-4.3 0-.6 7.9-1.9 8c-1.6-.1-3.2-.4-4.7-.9 0 0-.9 7.3-2.5 7.2-1.5-.3-3-.9-4.4-1.6 0 0-1.9 8.3-3.1 8.4s-5.4 0-5.4 0-3.5 7.2-4.5 7c-1.7-.5-3.3-1.1-4.9-1.7 0 0-3.5 8-4.7 8s-4.9-1.4-4.9-1.4-4.5 6.3-5.5 6.3-5.9-2.9-5.9-2.9-5.3 7.2-7.2 7.2c-1.9.1-1.7-4.7-1.7-4.7s-11.8 7.5-12.6 7.2-1.4-5.2-1.4-5.2-8.5 7.3-10.9 7.3-10.9-7.3-10.9-7.3-.6 4.9-1.4 5.2-12.6-7.2-12.6-7.2.1 4.7-1.7 4.7-7.2-7.2-7.2-7.2-4.9 2.9-5.9 2.9-5.5-6.3-5.5-6.3-3.6 1.4-4.9 1.4-4.7-8-4.7-8c-1.6.7-3.2 1.2-4.9 1.7-1 .1-4.5-7-4.5-7s-4.2.1-5.4 0c-1.2-.1-3.1-8.4-3.1-8.4-1.4.8-2.9 1.3-4.4 1.6-1.6.1-2.5-7.2-2.5-7.2-1.5.5-3.1.7-4.7.9-1.3-.1-1.9-8-1.9-8s-3.2.8-4.3 0-.9-8.7-.9-8.7c-1.1-.6-2.3-1.1-3.5-1.6-.8-.2 1-8.4 1-8.4s-3.1-.3-3.9-2 2.2-10.4 2.2-10.4-3.2-1.4-3.8-3.7 3-10.5 3-10.5-4.4-2.6-4.6-4.3 5.4-9.5 5.4-9.5-3.7-1-4.2-3.5S7 85.4 7 85.4s-4.3-.5-5-3.3 8.2-10.9 8.2-10.9-3.5-3.1-3.5-5.9S17.9 58 17.9 58s-5.1-2-5.1-5.1 13.8-7.2 13.8-7.2-5.1-4-4.7-6.5 14-5 14-5-4.4-3.1-4.3-5.6 12.6-3.4 12.6-3.4-2.3-4.2-.6-6.4 12.7-2.9 12.7-2.9-1.6-3.6-1.1-4.9 13.9-1.6 13.9-1.6-.6-3.7.9-5.5S83.7 5 83.7 5s-.8-3.5.9-4.8S101 3.3 101 3.3z" fill="#fdfbec"/><path d="M101 20.5s12.6-3.7 14.1-2.6.8 4.1.8 4.1 10.7-2.5 11.9-1c1.2 1.5.7 4.7.7 4.7s11.5.2 12 1.4-.9 4.2-.9 4.2 9.6.6 11 2.5-.5 5.5-.5 5.5 10.8.8 10.9 3-3.7 4.8-3.7 4.8 11.8 2.1 12.1 4.3-4.1 5.6-4.1 5.6 11.9 3.6 11.9 6.2-4.4 4.4-4.4 4.4 9.7 3.9 9.7 6.3-3 5.1-3 5.1 7.7 7 7.1 9.4-4.4 3.1-4.4 3.1 5.6 6.8 5.1 8.9-3.6 3-3.6 3 4.8 6.7 4.6 8.2-4 3.7-4 3.7 3.1 7.1 2.6 9-3.2 3.2-3.2 3.2 2.6 7.3 2 8.8-3.4 1.8-3.4 1.8 1.5 7.1.8 7.2c-1 .4-2 .9-3 1.4 0 0 .2 6.9-.7 7.5s-3.7 0-3.7 0-.6 6.8-1.7 6.9c-1.4-.1-2.8-.3-4.1-.7 0 0-.7 6.3-2.1 6.2-1.3-.3-2.6-.7-3.8-1.4 0 0-1.7 7.2-2.7 7.3s-4.7 0-4.7 0-3 6.2-3.8 6.1c-1.4-.4-2.8-.9-4.2-1.5 0 0-3 6.9-4.1 6.9-1.4-.3-2.9-.7-4.2-1.2 0 0-3.8 5.5-4.7 5.5s-5.1-2.5-5.1-2.5-4.6 6.2-6.2 6.3-1.5-4-1.5-4-10.2 6.5-10.9 6.2-1.2-4.5-1.2-4.5-7.3 6.3-9.4 6.3-9.4-6.3-9.4-6.3-.5 4.2-1.2 4.5-11.2-6.3-11.2-6.3.1 4.1-1.5 4-6.2-6.3-6.2-6.3-4.2 2.5-5.1 2.5-4.7-5.5-4.7-5.5c-1.4.6-2.8 1-4.2 1.2-1.1 0-4.1-6.9-4.1-6.9-1.4.6-2.8 1.1-4.2 1.5-.9.1-3.8-6.1-3.8-6.1s-3.7.1-4.7 0-2.7-7.3-2.7-7.3c-1.2.7-2.5 1.1-3.8 1.4-1.4.1-2.1-6.2-2.1-6.2-1.3.4-2.7.6-4.1.7-1.1-.1-1.7-6.9-1.7-6.9s-2.8.6-3.7 0-.7-7.5-.7-7.5c-1-.5-2-1-3-1.4-.6-.2.8-7.2.8-7.2s-2.7-.3-3.4-1.8c-.6-1.5 2-8.8 2-8.8s-2.9-1.2-3.4-3.2 2.6-9 2.6-9-3.8-2.2-4-3.7 4.6-8.2 4.6-8.2-3.2-.8-3.6-3 5.1-8.9 5.1-8.9-3.8-.6-4.5-3.1c-.5-2.3 7.2-9.3 7.2-9.3s-3-2.7-3-5.1 9.7-6.3 9.7-6.3-4.4-1.8-4.4-4.4S36.8 57 36.8 57s-4.4-3.4-4.1-5.6 12.1-4.3 12.1-4.3-3.8-2.7-3.7-4.8 10.9-3 10.9-3-2-3.6-.6-5.5 11-2.5 11-2.5-1.4-3.1-.9-4.3 12-1.4 12-1.4-.5-3.1.7-4.6 11.9 1 11.9 1-.7-3 .8-4.1 14.1 2.6 14.1 2.6z" fill="#f6e7a4"/><path d="M167.9 93.9c0-1.9-14.1-10.5-15.1-12.1s3.5-5.1 3.2-7.1-18.2-4.6-18.3-5.7 4.4-4.5 3.7-6.2-18.5-1.3-18.9-1.9.5-4.7 0-6-21.6 3-21.6 3-21-4.3-21.6-3 .3 5.4 0 6-18.1.2-18.9 1.9 3.8 5.2 3.7 6.2-18.1 3.7-18.3 5.7 4.2 5.5 3.2 7.1S34.1 92 34.1 93.9s5.1 4.1 4.3 6-9.7 15.5-9.6 16.4 6 .6 6.9 2.1-5.3 16.2-5 18 2.8 1.6 5 1.5-.6 17.7 0 18.1 4.6-1.3 5.1 1.2c.9 5.3 2.5 10.4 4.9 15.2 0 0 3 6.2 3.8 6.1 1.4-.4 2.8-.9 4.2-1.5 0 0 3 6.9 4.1 6.9 1.4-.3 2.9-.7 4.2-1.2 0 0 3.8 5.5 4.7 5.5s5.1-2.5 5.1-2.5 4.6 6.2 6.2 6.3 1.5-4 1.5-4 10.2 6.5 10.9 6.2 1.2-4.5 1.2-4.5 7.3 6.3 9.4 6.3 9.4-6.3 9.4-6.3.5 4.2 1.2 4.5 10.9-6.2 10.9-6.2-.1 4.1 1.5 4 6.2-6.3 6.2-6.3 4.2 2.5 5.1 2.5 4.7-5.5 4.7-5.5c1.4.6 2.8 1 4.2 1.2 1.1 0 4.1-6.9 4.1-6.9 1.4.6 2.8 1.1 4.2 1.5.9.1 3.8-6.1 3.8-6.1 2.4-4.8 4-9.9 4.9-15.2.4-2.5 4.4-.8 5.1-1.2s-2.1-18.2 0-18.1 4.6.3 5-1.5-5.8-16.5-5-18 6.8-1.3 6.9-2.1-8.8-14.4-9.6-16.4 4.3-4 4.3-6z" fill="#e1c56b"/><path d="M136.9 103.4c-1.3-.1-.8 2.5-2.7 2.6s-7.3-7.7-8-4.9-9-4-11.5-4.4-1.7 2.3-2.9 3.7-8.2-3.2-10.8-3.2-9.6 4.6-10.8 3.2-.5-4.1-2.9-3.7-10.8 7.2-11.5 4.4-6.1 5-8 4.9-1.4-2.7-2.7-2.6-6.3 10.1-6.3 14v19.1c0 23.7 19.4 43.3 43.1 42.8 23-.5 41.4-19.2 41.4-42.2v-19.7c-.1-3.9-5.1-13.9-6.4-14z" fill="#efb0af"/><path d="M85.6 150.1c0 8.5 6.9 15.4 15.4 15.4s15.4-6.9 15.4-15.4H85.6z" fill="#fff"/><circle class="st6" cx="81.7" cy="126.5" r="3.9"/><circle class="st6" cx="120.3" cy="126.5" r="3.9"/></g></svg>